# xmcd CD database file
#
# Track frame offsets:
#	150
#	56728
#	110142
#	169112
#
# Disc length: 3023 seconds
#
# Revision: 0
# Processed by: cddbd v1.5.1PL2 Copyright (c) Steve Scherf et al.
# Submitted via: CDex 1.50
#
DISCID=340bcd04
DTITLE=SOLEIL DES TROPIQUES - SOLEIL DES TROPIQUES
DYEAR=2006
DGENRE=New Age
TTITLE0=Bleu indigo
TTITLE1=Merle moqueur
TTITLE2=La mére cadencée
TTITLE3=Onde
EXTD=YEAR: 2006
EXTT0=
EXTT1=
EXTT2=
EXTT3=
PLAYORDER=
